<mxfile host="Electron" modified="2024-10-14T08:35:04.686Z" agent="Mozilla/5.0 (Windows NT 10.0; Win64; x64) AppleWebKit/537.36 (KHTML, like Gecko) draw.io/24.5.1 Chrome/124.0.6367.207 Electron/30.0.6 Safari/537.36" etag="CIWes_uyjpW_S1FqIhSh" version="24.5.1" type="device">
  <diagram id="R2lEEEUBdFMjLlhIrx00" name="Page-1">
    <mxGraphModel dx="1706" dy="1220" grid="1" gridSize="10" guides="1" tooltips="1" connect="1" arrows="1" fold="1" page="1" pageScale="1" pageWidth="850" pageHeight="1100" math="0" shadow="0" extFonts="Permanent Marker^https://fonts.googleapis.com/css?family=Permanent+Marker">
      <root>
        <mxCell id="0" />
        <mxCell id="1" parent="0" />
        <mxCell id="B0asdBHlaRNwjjJLpjrR-1" value="Colonists" style="shape=table;startSize=25;container=1;collapsible=0;childLayout=tableLayout;fixedRows=1;rowLines=1;fontStyle=1;align=center;resizeLast=1;" parent="1" vertex="1">
          <mxGeometry x="373" y="20" width="177" height="311" as="geometry" />
        </mxCell>
        <mxCell id="B0asdBHlaRNwjjJLpjrR-2" style="shape=tableRow;horizontal=0;startSize=0;swimlaneHead=0;swimlaneBody=0;fillColor=none;collapsible=0;dropTarget=0;points=[[0,0.5],[1,0.5]];portConstraint=eastwest;top=0;left=0;right=0;bottom=0;" parent="B0asdBHlaRNwjjJLpjrR-1" vertex="1">
          <mxGeometry y="25" width="177" height="22" as="geometry" />
        </mxCell>
        <mxCell id="B0asdBHlaRNwjjJLpjrR-3" value="int" style="shape=partialRectangle;connectable=0;fillColor=none;top=0;left=0;bottom=0;right=0;align=left;spacingLeft=2;overflow=hidden;fontSize=11;" parent="B0asdBHlaRNwjjJLpjrR-2" vertex="1">
          <mxGeometry width="42" height="22" as="geometry">
            <mxRectangle width="42" height="22" as="alternateBounds" />
          </mxGeometry>
        </mxCell>
        <mxCell id="B0asdBHlaRNwjjJLpjrR-4" value="ColonistID" style="shape=partialRectangle;connectable=0;fillColor=none;top=0;left=0;bottom=0;right=0;align=left;spacingLeft=2;overflow=hidden;fontSize=11;" parent="B0asdBHlaRNwjjJLpjrR-2" vertex="1">
          <mxGeometry x="42" width="135" height="22" as="geometry">
            <mxRectangle width="135" height="22" as="alternateBounds" />
          </mxGeometry>
        </mxCell>
        <mxCell id="B0asdBHlaRNwjjJLpjrR-5" style="shape=tableRow;horizontal=0;startSize=0;swimlaneHead=0;swimlaneBody=0;fillColor=none;collapsible=0;dropTarget=0;points=[[0,0.5],[1,0.5]];portConstraint=eastwest;top=0;left=0;right=0;bottom=0;" parent="B0asdBHlaRNwjjJLpjrR-1" vertex="1">
          <mxGeometry y="47" width="177" height="22" as="geometry" />
        </mxCell>
        <mxCell id="B0asdBHlaRNwjjJLpjrR-6" value="varchar" style="shape=partialRectangle;connectable=0;fillColor=none;top=0;left=0;bottom=0;right=0;align=left;spacingLeft=2;overflow=hidden;fontSize=11;" parent="B0asdBHlaRNwjjJLpjrR-5" vertex="1">
          <mxGeometry width="42" height="22" as="geometry">
            <mxRectangle width="42" height="22" as="alternateBounds" />
          </mxGeometry>
        </mxCell>
        <mxCell id="B0asdBHlaRNwjjJLpjrR-7" value="FirstName" style="shape=partialRectangle;connectable=0;fillColor=none;top=0;left=0;bottom=0;right=0;align=left;spacingLeft=2;overflow=hidden;fontSize=11;" parent="B0asdBHlaRNwjjJLpjrR-5" vertex="1">
          <mxGeometry x="42" width="135" height="22" as="geometry">
            <mxRectangle width="135" height="22" as="alternateBounds" />
          </mxGeometry>
        </mxCell>
        <mxCell id="B0asdBHlaRNwjjJLpjrR-8" style="shape=tableRow;horizontal=0;startSize=0;swimlaneHead=0;swimlaneBody=0;fillColor=none;collapsible=0;dropTarget=0;points=[[0,0.5],[1,0.5]];portConstraint=eastwest;top=0;left=0;right=0;bottom=0;" parent="B0asdBHlaRNwjjJLpjrR-1" vertex="1">
          <mxGeometry y="69" width="177" height="22" as="geometry" />
        </mxCell>
        <mxCell id="B0asdBHlaRNwjjJLpjrR-9" value="varchar" style="shape=partialRectangle;connectable=0;fillColor=none;top=0;left=0;bottom=0;right=0;align=left;spacingLeft=2;overflow=hidden;fontSize=11;" parent="B0asdBHlaRNwjjJLpjrR-8" vertex="1">
          <mxGeometry width="42" height="22" as="geometry">
            <mxRectangle width="42" height="22" as="alternateBounds" />
          </mxGeometry>
        </mxCell>
        <mxCell id="B0asdBHlaRNwjjJLpjrR-10" value="MiddleName" style="shape=partialRectangle;connectable=0;fillColor=none;top=0;left=0;bottom=0;right=0;align=left;spacingLeft=2;overflow=hidden;fontSize=11;" parent="B0asdBHlaRNwjjJLpjrR-8" vertex="1">
          <mxGeometry x="42" width="135" height="22" as="geometry">
            <mxRectangle width="135" height="22" as="alternateBounds" />
          </mxGeometry>
        </mxCell>
        <mxCell id="B0asdBHlaRNwjjJLpjrR-11" style="shape=tableRow;horizontal=0;startSize=0;swimlaneHead=0;swimlaneBody=0;fillColor=none;collapsible=0;dropTarget=0;points=[[0,0.5],[1,0.5]];portConstraint=eastwest;top=0;left=0;right=0;bottom=0;" parent="B0asdBHlaRNwjjJLpjrR-1" vertex="1">
          <mxGeometry y="91" width="177" height="22" as="geometry" />
        </mxCell>
        <mxCell id="B0asdBHlaRNwjjJLpjrR-12" value="varchar" style="shape=partialRectangle;connectable=0;fillColor=none;top=0;left=0;bottom=0;right=0;align=left;spacingLeft=2;overflow=hidden;fontSize=11;" parent="B0asdBHlaRNwjjJLpjrR-11" vertex="1">
          <mxGeometry width="42" height="22" as="geometry">
            <mxRectangle width="42" height="22" as="alternateBounds" />
          </mxGeometry>
        </mxCell>
        <mxCell id="B0asdBHlaRNwjjJLpjrR-13" value="Surname" style="shape=partialRectangle;connectable=0;fillColor=none;top=0;left=0;bottom=0;right=0;align=left;spacingLeft=2;overflow=hidden;fontSize=11;" parent="B0asdBHlaRNwjjJLpjrR-11" vertex="1">
          <mxGeometry x="42" width="135" height="22" as="geometry">
            <mxRectangle width="135" height="22" as="alternateBounds" />
          </mxGeometry>
        </mxCell>
        <mxCell id="B0asdBHlaRNwjjJLpjrR-14" style="shape=tableRow;horizontal=0;startSize=0;swimlaneHead=0;swimlaneBody=0;fillColor=none;collapsible=0;dropTarget=0;points=[[0,0.5],[1,0.5]];portConstraint=eastwest;top=0;left=0;right=0;bottom=0;" parent="B0asdBHlaRNwjjJLpjrR-1" vertex="1">
          <mxGeometry y="113" width="177" height="22" as="geometry" />
        </mxCell>
        <mxCell id="B0asdBHlaRNwjjJLpjrR-15" value="date" style="shape=partialRectangle;connectable=0;fillColor=none;top=0;left=0;bottom=0;right=0;align=left;spacingLeft=2;overflow=hidden;fontSize=11;" parent="B0asdBHlaRNwjjJLpjrR-14" vertex="1">
          <mxGeometry width="42" height="22" as="geometry">
            <mxRectangle width="42" height="22" as="alternateBounds" />
          </mxGeometry>
        </mxCell>
        <mxCell id="B0asdBHlaRNwjjJLpjrR-16" value="DateOfBirth" style="shape=partialRectangle;connectable=0;fillColor=none;top=0;left=0;bottom=0;right=0;align=left;spacingLeft=2;overflow=hidden;fontSize=11;" parent="B0asdBHlaRNwjjJLpjrR-14" vertex="1">
          <mxGeometry x="42" width="135" height="22" as="geometry">
            <mxRectangle width="135" height="22" as="alternateBounds" />
          </mxGeometry>
        </mxCell>
        <mxCell id="B0asdBHlaRNwjjJLpjrR-17" style="shape=tableRow;horizontal=0;startSize=0;swimlaneHead=0;swimlaneBody=0;fillColor=none;collapsible=0;dropTarget=0;points=[[0,0.5],[1,0.5]];portConstraint=eastwest;top=0;left=0;right=0;bottom=0;" parent="B0asdBHlaRNwjjJLpjrR-1" vertex="1">
          <mxGeometry y="135" width="177" height="22" as="geometry" />
        </mxCell>
        <mxCell id="B0asdBHlaRNwjjJLpjrR-18" value="varchar" style="shape=partialRectangle;connectable=0;fillColor=none;top=0;left=0;bottom=0;right=0;align=left;spacingLeft=2;overflow=hidden;fontSize=11;" parent="B0asdBHlaRNwjjJLpjrR-17" vertex="1">
          <mxGeometry width="42" height="22" as="geometry">
            <mxRectangle width="42" height="22" as="alternateBounds" />
          </mxGeometry>
        </mxCell>
        <mxCell id="B0asdBHlaRNwjjJLpjrR-19" value="Qualification" style="shape=partialRectangle;connectable=0;fillColor=none;top=0;left=0;bottom=0;right=0;align=left;spacingLeft=2;overflow=hidden;fontSize=11;" parent="B0asdBHlaRNwjjJLpjrR-17" vertex="1">
          <mxGeometry x="42" width="135" height="22" as="geometry">
            <mxRectangle width="135" height="22" as="alternateBounds" />
          </mxGeometry>
        </mxCell>
        <mxCell id="B0asdBHlaRNwjjJLpjrR-20" style="shape=tableRow;horizontal=0;startSize=0;swimlaneHead=0;swimlaneBody=0;fillColor=none;collapsible=0;dropTarget=0;points=[[0,0.5],[1,0.5]];portConstraint=eastwest;top=0;left=0;right=0;bottom=0;" parent="B0asdBHlaRNwjjJLpjrR-1" vertex="1">
          <mxGeometry y="157" width="177" height="22" as="geometry" />
        </mxCell>
        <mxCell id="B0asdBHlaRNwjjJLpjrR-21" value="int" style="shape=partialRectangle;connectable=0;fillColor=none;top=0;left=0;bottom=0;right=0;align=left;spacingLeft=2;overflow=hidden;fontSize=11;" parent="B0asdBHlaRNwjjJLpjrR-20" vertex="1">
          <mxGeometry width="42" height="22" as="geometry">
            <mxRectangle width="42" height="22" as="alternateBounds" />
          </mxGeometry>
        </mxCell>
        <mxCell id="B0asdBHlaRNwjjJLpjrR-22" value="Age" style="shape=partialRectangle;connectable=0;fillColor=none;top=0;left=0;bottom=0;right=0;align=left;spacingLeft=2;overflow=hidden;fontSize=11;" parent="B0asdBHlaRNwjjJLpjrR-20" vertex="1">
          <mxGeometry x="42" width="135" height="22" as="geometry">
            <mxRectangle width="135" height="22" as="alternateBounds" />
          </mxGeometry>
        </mxCell>
        <mxCell id="B0asdBHlaRNwjjJLpjrR-23" style="shape=tableRow;horizontal=0;startSize=0;swimlaneHead=0;swimlaneBody=0;fillColor=none;collapsible=0;dropTarget=0;points=[[0,0.5],[1,0.5]];portConstraint=eastwest;top=0;left=0;right=0;bottom=0;" parent="B0asdBHlaRNwjjJLpjrR-1" vertex="1">
          <mxGeometry y="179" width="177" height="22" as="geometry" />
        </mxCell>
        <mxCell id="B0asdBHlaRNwjjJLpjrR-24" value="varchar" style="shape=partialRectangle;connectable=0;fillColor=none;top=0;left=0;bottom=0;right=0;align=left;spacingLeft=2;overflow=hidden;fontSize=11;" parent="B0asdBHlaRNwjjJLpjrR-23" vertex="1">
          <mxGeometry width="42" height="22" as="geometry">
            <mxRectangle width="42" height="22" as="alternateBounds" />
          </mxGeometry>
        </mxCell>
        <mxCell id="B0asdBHlaRNwjjJLpjrR-25" value="EarthAddress" style="shape=partialRectangle;connectable=0;fillColor=none;top=0;left=0;bottom=0;right=0;align=left;spacingLeft=2;overflow=hidden;fontSize=11;" parent="B0asdBHlaRNwjjJLpjrR-23" vertex="1">
          <mxGeometry x="42" width="135" height="22" as="geometry">
            <mxRectangle width="135" height="22" as="alternateBounds" />
          </mxGeometry>
        </mxCell>
        <mxCell id="B0asdBHlaRNwjjJLpjrR-26" style="shape=tableRow;horizontal=0;startSize=0;swimlaneHead=0;swimlaneBody=0;fillColor=none;collapsible=0;dropTarget=0;points=[[0,0.5],[1,0.5]];portConstraint=eastwest;top=0;left=0;right=0;bottom=0;" parent="B0asdBHlaRNwjjJLpjrR-1" vertex="1">
          <mxGeometry y="201" width="177" height="22" as="geometry" />
        </mxCell>
        <mxCell id="B0asdBHlaRNwjjJLpjrR-27" value="char" style="shape=partialRectangle;connectable=0;fillColor=none;top=0;left=0;bottom=0;right=0;align=left;spacingLeft=2;overflow=hidden;fontSize=11;" parent="B0asdBHlaRNwjjJLpjrR-26" vertex="1">
          <mxGeometry width="42" height="22" as="geometry">
            <mxRectangle width="42" height="22" as="alternateBounds" />
          </mxGeometry>
        </mxCell>
        <mxCell id="B0asdBHlaRNwjjJLpjrR-28" value="Gender" style="shape=partialRectangle;connectable=0;fillColor=none;top=0;left=0;bottom=0;right=0;align=left;spacingLeft=2;overflow=hidden;fontSize=11;" parent="B0asdBHlaRNwjjJLpjrR-26" vertex="1">
          <mxGeometry x="42" width="135" height="22" as="geometry">
            <mxRectangle width="135" height="22" as="alternateBounds" />
          </mxGeometry>
        </mxCell>
        <mxCell id="B0asdBHlaRNwjjJLpjrR-29" style="shape=tableRow;horizontal=0;startSize=0;swimlaneHead=0;swimlaneBody=0;fillColor=none;collapsible=0;dropTarget=0;points=[[0,0.5],[1,0.5]];portConstraint=eastwest;top=0;left=0;right=0;bottom=0;" parent="B0asdBHlaRNwjjJLpjrR-1" vertex="1">
          <mxGeometry y="223" width="177" height="22" as="geometry" />
        </mxCell>
        <mxCell id="B0asdBHlaRNwjjJLpjrR-30" value="varchar" style="shape=partialRectangle;connectable=0;fillColor=none;top=0;left=0;bottom=0;right=0;align=left;spacingLeft=2;overflow=hidden;fontSize=11;" parent="B0asdBHlaRNwjjJLpjrR-29" vertex="1">
          <mxGeometry width="42" height="22" as="geometry">
            <mxRectangle width="42" height="22" as="alternateBounds" />
          </mxGeometry>
        </mxCell>
        <mxCell id="B0asdBHlaRNwjjJLpjrR-31" value="ContactNo" style="shape=partialRectangle;connectable=0;fillColor=none;top=0;left=0;bottom=0;right=0;align=left;spacingLeft=2;overflow=hidden;fontSize=11;" parent="B0asdBHlaRNwjjJLpjrR-29" vertex="1">
          <mxGeometry x="42" width="135" height="22" as="geometry">
            <mxRectangle width="135" height="22" as="alternateBounds" />
          </mxGeometry>
        </mxCell>
        <mxCell id="B0asdBHlaRNwjjJLpjrR-32" style="shape=tableRow;horizontal=0;startSize=0;swimlaneHead=0;swimlaneBody=0;fillColor=none;collapsible=0;dropTarget=0;points=[[0,0.5],[1,0.5]];portConstraint=eastwest;top=0;left=0;right=0;bottom=0;" parent="B0asdBHlaRNwjjJLpjrR-1" vertex="1">
          <mxGeometry y="245" width="177" height="22" as="geometry" />
        </mxCell>
        <mxCell id="B0asdBHlaRNwjjJLpjrR-33" value="varchar" style="shape=partialRectangle;connectable=0;fillColor=none;top=0;left=0;bottom=0;right=0;align=left;spacingLeft=2;overflow=hidden;fontSize=11;" parent="B0asdBHlaRNwjjJLpjrR-32" vertex="1">
          <mxGeometry width="42" height="22" as="geometry">
            <mxRectangle width="42" height="22" as="alternateBounds" />
          </mxGeometry>
        </mxCell>
        <mxCell id="B0asdBHlaRNwjjJLpjrR-34" value="CivilStatus" style="shape=partialRectangle;connectable=0;fillColor=none;top=0;left=0;bottom=0;right=0;align=left;spacingLeft=2;overflow=hidden;fontSize=11;" parent="B0asdBHlaRNwjjJLpjrR-32" vertex="1">
          <mxGeometry x="42" width="135" height="22" as="geometry">
            <mxRectangle width="135" height="22" as="alternateBounds" />
          </mxGeometry>
        </mxCell>
        <mxCell id="B0asdBHlaRNwjjJLpjrR-35" style="shape=tableRow;horizontal=0;startSize=0;swimlaneHead=0;swimlaneBody=0;fillColor=none;collapsible=0;dropTarget=0;points=[[0,0.5],[1,0.5]];portConstraint=eastwest;top=0;left=0;right=0;bottom=0;" parent="B0asdBHlaRNwjjJLpjrR-1" vertex="1">
          <mxGeometry y="267" width="177" height="22" as="geometry" />
        </mxCell>
        <mxCell id="B0asdBHlaRNwjjJLpjrR-36" value="int" style="shape=partialRectangle;connectable=0;fillColor=none;top=0;left=0;bottom=0;right=0;align=left;spacingLeft=2;overflow=hidden;fontSize=11;" parent="B0asdBHlaRNwjjJLpjrR-35" vertex="1">
          <mxGeometry width="42" height="22" as="geometry">
            <mxRectangle width="42" height="22" as="alternateBounds" />
          </mxGeometry>
        </mxCell>
        <mxCell id="B0asdBHlaRNwjjJLpjrR-37" value="FamilyMembersGoing" style="shape=partialRectangle;connectable=0;fillColor=none;top=0;left=0;bottom=0;right=0;align=left;spacingLeft=2;overflow=hidden;fontSize=11;" parent="B0asdBHlaRNwjjJLpjrR-35" vertex="1">
          <mxGeometry x="42" width="135" height="22" as="geometry">
            <mxRectangle width="135" height="22" as="alternateBounds" />
          </mxGeometry>
        </mxCell>
        <mxCell id="B0asdBHlaRNwjjJLpjrR-38" style="shape=tableRow;horizontal=0;startSize=0;swimlaneHead=0;swimlaneBody=0;fillColor=none;collapsible=0;dropTarget=0;points=[[0,0.5],[1,0.5]];portConstraint=eastwest;top=0;left=0;right=0;bottom=0;" parent="B0asdBHlaRNwjjJLpjrR-1" vertex="1">
          <mxGeometry y="289" width="177" height="22" as="geometry" />
        </mxCell>
        <mxCell id="B0asdBHlaRNwjjJLpjrR-39" value="varchar" style="shape=partialRectangle;connectable=0;fillColor=none;top=0;left=0;bottom=0;right=0;align=left;spacingLeft=2;overflow=hidden;fontSize=11;" parent="B0asdBHlaRNwjjJLpjrR-38" vertex="1">
          <mxGeometry width="42" height="22" as="geometry">
            <mxRectangle width="42" height="22" as="alternateBounds" />
          </mxGeometry>
        </mxCell>
        <mxCell id="B0asdBHlaRNwjjJLpjrR-40" value="MarsColonizationID" style="shape=partialRectangle;connectable=0;fillColor=none;top=0;left=0;bottom=0;right=0;align=left;spacingLeft=2;overflow=hidden;fontSize=11;" parent="B0asdBHlaRNwjjJLpjrR-38" vertex="1">
          <mxGeometry x="42" width="135" height="22" as="geometry">
            <mxRectangle width="135" height="22" as="alternateBounds" />
          </mxGeometry>
        </mxCell>
        <mxCell id="B0asdBHlaRNwjjJLpjrR-41" value="Dependents" style="shape=table;startSize=25;container=1;collapsible=0;childLayout=tableLayout;fixedRows=1;rowLines=1;fontStyle=1;align=center;resizeLast=1;" parent="1" vertex="1">
          <mxGeometry x="200" y="410" width="183" height="179" as="geometry" />
        </mxCell>
        <mxCell id="B0asdBHlaRNwjjJLpjrR-42" style="shape=tableRow;horizontal=0;startSize=0;swimlaneHead=0;swimlaneBody=0;fillColor=none;collapsible=0;dropTarget=0;points=[[0,0.5],[1,0.5]];portConstraint=eastwest;top=0;left=0;right=0;bottom=0;" parent="B0asdBHlaRNwjjJLpjrR-41" vertex="1">
          <mxGeometry y="25" width="183" height="22" as="geometry" />
        </mxCell>
        <mxCell id="B0asdBHlaRNwjjJLpjrR-43" value="int" style="shape=partialRectangle;connectable=0;fillColor=none;top=0;left=0;bottom=0;right=0;align=left;spacingLeft=2;overflow=hidden;fontSize=11;" parent="B0asdBHlaRNwjjJLpjrR-42" vertex="1">
          <mxGeometry width="42" height="22" as="geometry">
            <mxRectangle width="42" height="22" as="alternateBounds" />
          </mxGeometry>
        </mxCell>
        <mxCell id="B0asdBHlaRNwjjJLpjrR-44" value="DependentID" style="shape=partialRectangle;connectable=0;fillColor=none;top=0;left=0;bottom=0;right=0;align=left;spacingLeft=2;overflow=hidden;fontSize=11;" parent="B0asdBHlaRNwjjJLpjrR-42" vertex="1">
          <mxGeometry x="42" width="141" height="22" as="geometry">
            <mxRectangle width="141" height="22" as="alternateBounds" />
          </mxGeometry>
        </mxCell>
        <mxCell id="B0asdBHlaRNwjjJLpjrR-45" style="shape=tableRow;horizontal=0;startSize=0;swimlaneHead=0;swimlaneBody=0;fillColor=none;collapsible=0;dropTarget=0;points=[[0,0.5],[1,0.5]];portConstraint=eastwest;top=0;left=0;right=0;bottom=0;" parent="B0asdBHlaRNwjjJLpjrR-41" vertex="1">
          <mxGeometry y="47" width="183" height="22" as="geometry" />
        </mxCell>
        <mxCell id="B0asdBHlaRNwjjJLpjrR-46" value="int" style="shape=partialRectangle;connectable=0;fillColor=none;top=0;left=0;bottom=0;right=0;align=left;spacingLeft=2;overflow=hidden;fontSize=11;" parent="B0asdBHlaRNwjjJLpjrR-45" vertex="1">
          <mxGeometry width="42" height="22" as="geometry">
            <mxRectangle width="42" height="22" as="alternateBounds" />
          </mxGeometry>
        </mxCell>
        <mxCell id="B0asdBHlaRNwjjJLpjrR-47" value="ColonistID" style="shape=partialRectangle;connectable=0;fillColor=none;top=0;left=0;bottom=0;right=0;align=left;spacingLeft=2;overflow=hidden;fontSize=11;" parent="B0asdBHlaRNwjjJLpjrR-45" vertex="1">
          <mxGeometry x="42" width="141" height="22" as="geometry">
            <mxRectangle width="141" height="22" as="alternateBounds" />
          </mxGeometry>
        </mxCell>
        <mxCell id="B0asdBHlaRNwjjJLpjrR-48" style="shape=tableRow;horizontal=0;startSize=0;swimlaneHead=0;swimlaneBody=0;fillColor=none;collapsible=0;dropTarget=0;points=[[0,0.5],[1,0.5]];portConstraint=eastwest;top=0;left=0;right=0;bottom=0;" parent="B0asdBHlaRNwjjJLpjrR-41" vertex="1">
          <mxGeometry y="69" width="183" height="22" as="geometry" />
        </mxCell>
        <mxCell id="B0asdBHlaRNwjjJLpjrR-49" value="varchar" style="shape=partialRectangle;connectable=0;fillColor=none;top=0;left=0;bottom=0;right=0;align=left;spacingLeft=2;overflow=hidden;fontSize=11;" parent="B0asdBHlaRNwjjJLpjrR-48" vertex="1">
          <mxGeometry width="42" height="22" as="geometry">
            <mxRectangle width="42" height="22" as="alternateBounds" />
          </mxGeometry>
        </mxCell>
        <mxCell id="B0asdBHlaRNwjjJLpjrR-50" value="DependentName" style="shape=partialRectangle;connectable=0;fillColor=none;top=0;left=0;bottom=0;right=0;align=left;spacingLeft=2;overflow=hidden;fontSize=11;" parent="B0asdBHlaRNwjjJLpjrR-48" vertex="1">
          <mxGeometry x="42" width="141" height="22" as="geometry">
            <mxRectangle width="141" height="22" as="alternateBounds" />
          </mxGeometry>
        </mxCell>
        <mxCell id="B0asdBHlaRNwjjJLpjrR-51" style="shape=tableRow;horizontal=0;startSize=0;swimlaneHead=0;swimlaneBody=0;fillColor=none;collapsible=0;dropTarget=0;points=[[0,0.5],[1,0.5]];portConstraint=eastwest;top=0;left=0;right=0;bottom=0;" parent="B0asdBHlaRNwjjJLpjrR-41" vertex="1">
          <mxGeometry y="91" width="183" height="22" as="geometry" />
        </mxCell>
        <mxCell id="B0asdBHlaRNwjjJLpjrR-52" value="date" style="shape=partialRectangle;connectable=0;fillColor=none;top=0;left=0;bottom=0;right=0;align=left;spacingLeft=2;overflow=hidden;fontSize=11;" parent="B0asdBHlaRNwjjJLpjrR-51" vertex="1">
          <mxGeometry width="42" height="22" as="geometry">
            <mxRectangle width="42" height="22" as="alternateBounds" />
          </mxGeometry>
        </mxCell>
        <mxCell id="B0asdBHlaRNwjjJLpjrR-53" value="DateOfBirth" style="shape=partialRectangle;connectable=0;fillColor=none;top=0;left=0;bottom=0;right=0;align=left;spacingLeft=2;overflow=hidden;fontSize=11;" parent="B0asdBHlaRNwjjJLpjrR-51" vertex="1">
          <mxGeometry x="42" width="141" height="22" as="geometry">
            <mxRectangle width="141" height="22" as="alternateBounds" />
          </mxGeometry>
        </mxCell>
        <mxCell id="B0asdBHlaRNwjjJLpjrR-54" style="shape=tableRow;horizontal=0;startSize=0;swimlaneHead=0;swimlaneBody=0;fillColor=none;collapsible=0;dropTarget=0;points=[[0,0.5],[1,0.5]];portConstraint=eastwest;top=0;left=0;right=0;bottom=0;" parent="B0asdBHlaRNwjjJLpjrR-41" vertex="1">
          <mxGeometry y="113" width="183" height="22" as="geometry" />
        </mxCell>
        <mxCell id="B0asdBHlaRNwjjJLpjrR-55" value="int" style="shape=partialRectangle;connectable=0;fillColor=none;top=0;left=0;bottom=0;right=0;align=left;spacingLeft=2;overflow=hidden;fontSize=11;" parent="B0asdBHlaRNwjjJLpjrR-54" vertex="1">
          <mxGeometry width="42" height="22" as="geometry">
            <mxRectangle width="42" height="22" as="alternateBounds" />
          </mxGeometry>
        </mxCell>
        <mxCell id="B0asdBHlaRNwjjJLpjrR-56" value="Age" style="shape=partialRectangle;connectable=0;fillColor=none;top=0;left=0;bottom=0;right=0;align=left;spacingLeft=2;overflow=hidden;fontSize=11;" parent="B0asdBHlaRNwjjJLpjrR-54" vertex="1">
          <mxGeometry x="42" width="141" height="22" as="geometry">
            <mxRectangle width="141" height="22" as="alternateBounds" />
          </mxGeometry>
        </mxCell>
        <mxCell id="B0asdBHlaRNwjjJLpjrR-57" style="shape=tableRow;horizontal=0;startSize=0;swimlaneHead=0;swimlaneBody=0;fillColor=none;collapsible=0;dropTarget=0;points=[[0,0.5],[1,0.5]];portConstraint=eastwest;top=0;left=0;right=0;bottom=0;" parent="B0asdBHlaRNwjjJLpjrR-41" vertex="1">
          <mxGeometry y="135" width="183" height="22" as="geometry" />
        </mxCell>
        <mxCell id="B0asdBHlaRNwjjJLpjrR-58" value="char" style="shape=partialRectangle;connectable=0;fillColor=none;top=0;left=0;bottom=0;right=0;align=left;spacingLeft=2;overflow=hidden;fontSize=11;" parent="B0asdBHlaRNwjjJLpjrR-57" vertex="1">
          <mxGeometry width="42" height="22" as="geometry">
            <mxRectangle width="42" height="22" as="alternateBounds" />
          </mxGeometry>
        </mxCell>
        <mxCell id="B0asdBHlaRNwjjJLpjrR-59" value="Gender" style="shape=partialRectangle;connectable=0;fillColor=none;top=0;left=0;bottom=0;right=0;align=left;spacingLeft=2;overflow=hidden;fontSize=11;" parent="B0asdBHlaRNwjjJLpjrR-57" vertex="1">
          <mxGeometry x="42" width="141" height="22" as="geometry">
            <mxRectangle width="141" height="22" as="alternateBounds" />
          </mxGeometry>
        </mxCell>
        <mxCell id="B0asdBHlaRNwjjJLpjrR-60" style="shape=tableRow;horizontal=0;startSize=0;swimlaneHead=0;swimlaneBody=0;fillColor=none;collapsible=0;dropTarget=0;points=[[0,0.5],[1,0.5]];portConstraint=eastwest;top=0;left=0;right=0;bottom=0;" parent="B0asdBHlaRNwjjJLpjrR-41" vertex="1">
          <mxGeometry y="157" width="183" height="22" as="geometry" />
        </mxCell>
        <mxCell id="B0asdBHlaRNwjjJLpjrR-61" value="varchar" style="shape=partialRectangle;connectable=0;fillColor=none;top=0;left=0;bottom=0;right=0;align=left;spacingLeft=2;overflow=hidden;fontSize=11;" parent="B0asdBHlaRNwjjJLpjrR-60" vertex="1">
          <mxGeometry width="42" height="22" as="geometry">
            <mxRectangle width="42" height="22" as="alternateBounds" />
          </mxGeometry>
        </mxCell>
        <mxCell id="B0asdBHlaRNwjjJLpjrR-62" value="RelationshipToColonist" style="shape=partialRectangle;connectable=0;fillColor=none;top=0;left=0;bottom=0;right=0;align=left;spacingLeft=2;overflow=hidden;fontSize=11;" parent="B0asdBHlaRNwjjJLpjrR-60" vertex="1">
          <mxGeometry x="42" width="141" height="22" as="geometry">
            <mxRectangle width="141" height="22" as="alternateBounds" />
          </mxGeometry>
        </mxCell>
        <mxCell id="B0asdBHlaRNwjjJLpjrR-63" value="EJets" style="shape=table;startSize=25;container=1;collapsible=0;childLayout=tableLayout;fixedRows=1;rowLines=1;fontStyle=1;align=center;resizeLast=1;" parent="1" vertex="1">
          <mxGeometry x="10" y="530" width="173" height="201" as="geometry" />
        </mxCell>
        <mxCell id="B0asdBHlaRNwjjJLpjrR-64" style="shape=tableRow;horizontal=0;startSize=0;swimlaneHead=0;swimlaneBody=0;fillColor=none;collapsible=0;dropTarget=0;points=[[0,0.5],[1,0.5]];portConstraint=eastwest;top=0;left=0;right=0;bottom=0;" parent="B0asdBHlaRNwjjJLpjrR-63" vertex="1">
          <mxGeometry y="25" width="173" height="22" as="geometry" />
        </mxCell>
        <mxCell id="B0asdBHlaRNwjjJLpjrR-65" value="int" style="shape=partialRectangle;connectable=0;fillColor=none;top=0;left=0;bottom=0;right=0;align=left;spacingLeft=2;overflow=hidden;fontSize=11;" parent="B0asdBHlaRNwjjJLpjrR-64" vertex="1">
          <mxGeometry width="42" height="22" as="geometry">
            <mxRectangle width="42" height="22" as="alternateBounds" />
          </mxGeometry>
        </mxCell>
        <mxCell id="B0asdBHlaRNwjjJLpjrR-66" value="JetID" style="shape=partialRectangle;connectable=0;fillColor=none;top=0;left=0;bottom=0;right=0;align=left;spacingLeft=2;overflow=hidden;fontSize=11;" parent="B0asdBHlaRNwjjJLpjrR-64" vertex="1">
          <mxGeometry x="42" width="131" height="22" as="geometry">
            <mxRectangle width="131" height="22" as="alternateBounds" />
          </mxGeometry>
        </mxCell>
        <mxCell id="B0asdBHlaRNwjjJLpjrR-67" style="shape=tableRow;horizontal=0;startSize=0;swimlaneHead=0;swimlaneBody=0;fillColor=none;collapsible=0;dropTarget=0;points=[[0,0.5],[1,0.5]];portConstraint=eastwest;top=0;left=0;right=0;bottom=0;" parent="B0asdBHlaRNwjjJLpjrR-63" vertex="1">
          <mxGeometry y="47" width="173" height="22" as="geometry" />
        </mxCell>
        <mxCell id="B0asdBHlaRNwjjJLpjrR-68" value="varchar" style="shape=partialRectangle;connectable=0;fillColor=none;top=0;left=0;bottom=0;right=0;align=left;spacingLeft=2;overflow=hidden;fontSize=11;" parent="B0asdBHlaRNwjjJLpjrR-67" vertex="1">
          <mxGeometry width="42" height="22" as="geometry">
            <mxRectangle width="42" height="22" as="alternateBounds" />
          </mxGeometry>
        </mxCell>
        <mxCell id="B0asdBHlaRNwjjJLpjrR-69" value="JetCode" style="shape=partialRectangle;connectable=0;fillColor=none;top=0;left=0;bottom=0;right=0;align=left;spacingLeft=2;overflow=hidden;fontSize=11;" parent="B0asdBHlaRNwjjJLpjrR-67" vertex="1">
          <mxGeometry x="42" width="131" height="22" as="geometry">
            <mxRectangle width="131" height="22" as="alternateBounds" />
          </mxGeometry>
        </mxCell>
        <mxCell id="B0asdBHlaRNwjjJLpjrR-70" style="shape=tableRow;horizontal=0;startSize=0;swimlaneHead=0;swimlaneBody=0;fillColor=none;collapsible=0;dropTarget=0;points=[[0,0.5],[1,0.5]];portConstraint=eastwest;top=0;left=0;right=0;bottom=0;" parent="B0asdBHlaRNwjjJLpjrR-63" vertex="1">
          <mxGeometry y="69" width="173" height="22" as="geometry" />
        </mxCell>
        <mxCell id="B0asdBHlaRNwjjJLpjrR-71" value="int" style="shape=partialRectangle;connectable=0;fillColor=none;top=0;left=0;bottom=0;right=0;align=left;spacingLeft=2;overflow=hidden;fontSize=11;" parent="B0asdBHlaRNwjjJLpjrR-70" vertex="1">
          <mxGeometry width="42" height="22" as="geometry">
            <mxRectangle width="42" height="22" as="alternateBounds" />
          </mxGeometry>
        </mxCell>
        <mxCell id="B0asdBHlaRNwjjJLpjrR-72" value="PassengerSeats" style="shape=partialRectangle;connectable=0;fillColor=none;top=0;left=0;bottom=0;right=0;align=left;spacingLeft=2;overflow=hidden;fontSize=11;" parent="B0asdBHlaRNwjjJLpjrR-70" vertex="1">
          <mxGeometry x="42" width="131" height="22" as="geometry">
            <mxRectangle width="131" height="22" as="alternateBounds" />
          </mxGeometry>
        </mxCell>
        <mxCell id="B0asdBHlaRNwjjJLpjrR-73" style="shape=tableRow;horizontal=0;startSize=0;swimlaneHead=0;swimlaneBody=0;fillColor=none;collapsible=0;dropTarget=0;points=[[0,0.5],[1,0.5]];portConstraint=eastwest;top=0;left=0;right=0;bottom=0;" parent="B0asdBHlaRNwjjJLpjrR-63" vertex="1">
          <mxGeometry y="91" width="173" height="22" as="geometry" />
        </mxCell>
        <mxCell id="B0asdBHlaRNwjjJLpjrR-74" value="decimal" style="shape=partialRectangle;connectable=0;fillColor=none;top=0;left=0;bottom=0;right=0;align=left;spacingLeft=2;overflow=hidden;fontSize=11;" parent="B0asdBHlaRNwjjJLpjrR-73" vertex="1">
          <mxGeometry width="42" height="22" as="geometry">
            <mxRectangle width="42" height="22" as="alternateBounds" />
          </mxGeometry>
        </mxCell>
        <mxCell id="B0asdBHlaRNwjjJLpjrR-75" value="NuclearEnginePower" style="shape=partialRectangle;connectable=0;fillColor=none;top=0;left=0;bottom=0;right=0;align=left;spacingLeft=2;overflow=hidden;fontSize=11;" parent="B0asdBHlaRNwjjJLpjrR-73" vertex="1">
          <mxGeometry x="42" width="131" height="22" as="geometry">
            <mxRectangle width="131" height="22" as="alternateBounds" />
          </mxGeometry>
        </mxCell>
        <mxCell id="B0asdBHlaRNwjjJLpjrR-76" style="shape=tableRow;horizontal=0;startSize=0;swimlaneHead=0;swimlaneBody=0;fillColor=none;collapsible=0;dropTarget=0;points=[[0,0.5],[1,0.5]];portConstraint=eastwest;top=0;left=0;right=0;bottom=0;" parent="B0asdBHlaRNwjjJLpjrR-63" vertex="1">
          <mxGeometry y="113" width="173" height="22" as="geometry" />
        </mxCell>
        <mxCell id="B0asdBHlaRNwjjJLpjrR-77" value="int" style="shape=partialRectangle;connectable=0;fillColor=none;top=0;left=0;bottom=0;right=0;align=left;spacingLeft=2;overflow=hidden;fontSize=11;" parent="B0asdBHlaRNwjjJLpjrR-76" vertex="1">
          <mxGeometry width="42" height="22" as="geometry">
            <mxRectangle width="42" height="22" as="alternateBounds" />
          </mxGeometry>
        </mxCell>
        <mxCell id="B0asdBHlaRNwjjJLpjrR-78" value="MadeYear" style="shape=partialRectangle;connectable=0;fillColor=none;top=0;left=0;bottom=0;right=0;align=left;spacingLeft=2;overflow=hidden;fontSize=11;" parent="B0asdBHlaRNwjjJLpjrR-76" vertex="1">
          <mxGeometry x="42" width="131" height="22" as="geometry">
            <mxRectangle width="131" height="22" as="alternateBounds" />
          </mxGeometry>
        </mxCell>
        <mxCell id="B0asdBHlaRNwjjJLpjrR-79" style="shape=tableRow;horizontal=0;startSize=0;swimlaneHead=0;swimlaneBody=0;fillColor=none;collapsible=0;dropTarget=0;points=[[0,0.5],[1,0.5]];portConstraint=eastwest;top=0;left=0;right=0;bottom=0;" parent="B0asdBHlaRNwjjJLpjrR-63" vertex="1">
          <mxGeometry y="135" width="173" height="22" as="geometry" />
        </mxCell>
        <mxCell id="B0asdBHlaRNwjjJLpjrR-80" value="decimal" style="shape=partialRectangle;connectable=0;fillColor=none;top=0;left=0;bottom=0;right=0;align=left;spacingLeft=2;overflow=hidden;fontSize=11;" parent="B0asdBHlaRNwjjJLpjrR-79" vertex="1">
          <mxGeometry width="42" height="22" as="geometry">
            <mxRectangle width="42" height="22" as="alternateBounds" />
          </mxGeometry>
        </mxCell>
        <mxCell id="B0asdBHlaRNwjjJLpjrR-81" value="Weight" style="shape=partialRectangle;connectable=0;fillColor=none;top=0;left=0;bottom=0;right=0;align=left;spacingLeft=2;overflow=hidden;fontSize=11;" parent="B0asdBHlaRNwjjJLpjrR-79" vertex="1">
          <mxGeometry x="42" width="131" height="22" as="geometry">
            <mxRectangle width="131" height="22" as="alternateBounds" />
          </mxGeometry>
        </mxCell>
        <mxCell id="B0asdBHlaRNwjjJLpjrR-82" style="shape=tableRow;horizontal=0;startSize=0;swimlaneHead=0;swimlaneBody=0;fillColor=none;collapsible=0;dropTarget=0;points=[[0,0.5],[1,0.5]];portConstraint=eastwest;top=0;left=0;right=0;bottom=0;" parent="B0asdBHlaRNwjjJLpjrR-63" vertex="1">
          <mxGeometry y="157" width="173" height="22" as="geometry" />
        </mxCell>
        <mxCell id="B0asdBHlaRNwjjJLpjrR-83" value="varchar" style="shape=partialRectangle;connectable=0;fillColor=none;top=0;left=0;bottom=0;right=0;align=left;spacingLeft=2;overflow=hidden;fontSize=11;" parent="B0asdBHlaRNwjjJLpjrR-82" vertex="1">
          <mxGeometry width="42" height="22" as="geometry">
            <mxRectangle width="42" height="22" as="alternateBounds" />
          </mxGeometry>
        </mxCell>
        <mxCell id="B0asdBHlaRNwjjJLpjrR-84" value="PowerSource" style="shape=partialRectangle;connectable=0;fillColor=none;top=0;left=0;bottom=0;right=0;align=left;spacingLeft=2;overflow=hidden;fontSize=11;" parent="B0asdBHlaRNwjjJLpjrR-82" vertex="1">
          <mxGeometry x="42" width="131" height="22" as="geometry">
            <mxRectangle width="131" height="22" as="alternateBounds" />
          </mxGeometry>
        </mxCell>
        <mxCell id="B0asdBHlaRNwjjJLpjrR-85" style="shape=tableRow;horizontal=0;startSize=0;swimlaneHead=0;swimlaneBody=0;fillColor=none;collapsible=0;dropTarget=0;points=[[0,0.5],[1,0.5]];portConstraint=eastwest;top=0;left=0;right=0;bottom=0;" parent="B0asdBHlaRNwjjJLpjrR-63" vertex="1">
          <mxGeometry y="179" width="173" height="22" as="geometry" />
        </mxCell>
        <mxCell id="B0asdBHlaRNwjjJLpjrR-86" value="varchar" style="shape=partialRectangle;connectable=0;fillColor=none;top=0;left=0;bottom=0;right=0;align=left;spacingLeft=2;overflow=hidden;fontSize=11;" parent="B0asdBHlaRNwjjJLpjrR-85" vertex="1">
          <mxGeometry width="42" height="22" as="geometry">
            <mxRectangle width="42" height="22" as="alternateBounds" />
          </mxGeometry>
        </mxCell>
        <mxCell id="B0asdBHlaRNwjjJLpjrR-87" value="JetType" style="shape=partialRectangle;connectable=0;fillColor=none;top=0;left=0;bottom=0;right=0;align=left;spacingLeft=2;overflow=hidden;fontSize=11;" parent="B0asdBHlaRNwjjJLpjrR-85" vertex="1">
          <mxGeometry x="42" width="131" height="22" as="geometry">
            <mxRectangle width="131" height="22" as="alternateBounds" />
          </mxGeometry>
        </mxCell>
        <mxCell id="B0asdBHlaRNwjjJLpjrR-88" value="PilotAssignments" style="shape=table;startSize=25;container=1;collapsible=0;childLayout=tableLayout;fixedRows=1;rowLines=1;fontStyle=1;align=center;resizeLast=1;" parent="1" vertex="1">
          <mxGeometry x="26.5" y="276" width="138" height="113" as="geometry" />
        </mxCell>
        <mxCell id="B0asdBHlaRNwjjJLpjrR-89" style="shape=tableRow;horizontal=0;startSize=0;swimlaneHead=0;swimlaneBody=0;fillColor=none;collapsible=0;dropTarget=0;points=[[0,0.5],[1,0.5]];portConstraint=eastwest;top=0;left=0;right=0;bottom=0;" parent="B0asdBHlaRNwjjJLpjrR-88" vertex="1">
          <mxGeometry y="25" width="138" height="22" as="geometry" />
        </mxCell>
        <mxCell id="B0asdBHlaRNwjjJLpjrR-90" value="int" style="shape=partialRectangle;connectable=0;fillColor=none;top=0;left=0;bottom=0;right=0;align=left;spacingLeft=2;overflow=hidden;fontSize=11;" parent="B0asdBHlaRNwjjJLpjrR-89" vertex="1">
          <mxGeometry width="24" height="22" as="geometry">
            <mxRectangle width="24" height="22" as="alternateBounds" />
          </mxGeometry>
        </mxCell>
        <mxCell id="B0asdBHlaRNwjjJLpjrR-91" value="AssignmentID" style="shape=partialRectangle;connectable=0;fillColor=none;top=0;left=0;bottom=0;right=0;align=left;spacingLeft=2;overflow=hidden;fontSize=11;" parent="B0asdBHlaRNwjjJLpjrR-89" vertex="1">
          <mxGeometry x="24" width="114" height="22" as="geometry">
            <mxRectangle width="114" height="22" as="alternateBounds" />
          </mxGeometry>
        </mxCell>
        <mxCell id="B0asdBHlaRNwjjJLpjrR-92" style="shape=tableRow;horizontal=0;startSize=0;swimlaneHead=0;swimlaneBody=0;fillColor=none;collapsible=0;dropTarget=0;points=[[0,0.5],[1,0.5]];portConstraint=eastwest;top=0;left=0;right=0;bottom=0;" parent="B0asdBHlaRNwjjJLpjrR-88" vertex="1">
          <mxGeometry y="47" width="138" height="22" as="geometry" />
        </mxCell>
        <mxCell id="B0asdBHlaRNwjjJLpjrR-93" value="int" style="shape=partialRectangle;connectable=0;fillColor=none;top=0;left=0;bottom=0;right=0;align=left;spacingLeft=2;overflow=hidden;fontSize=11;" parent="B0asdBHlaRNwjjJLpjrR-92" vertex="1">
          <mxGeometry width="24" height="22" as="geometry">
            <mxRectangle width="24" height="22" as="alternateBounds" />
          </mxGeometry>
        </mxCell>
        <mxCell id="B0asdBHlaRNwjjJLpjrR-94" value="PilotID" style="shape=partialRectangle;connectable=0;fillColor=none;top=0;left=0;bottom=0;right=0;align=left;spacingLeft=2;overflow=hidden;fontSize=11;" parent="B0asdBHlaRNwjjJLpjrR-92" vertex="1">
          <mxGeometry x="24" width="114" height="22" as="geometry">
            <mxRectangle width="114" height="22" as="alternateBounds" />
          </mxGeometry>
        </mxCell>
        <mxCell id="B0asdBHlaRNwjjJLpjrR-95" style="shape=tableRow;horizontal=0;startSize=0;swimlaneHead=0;swimlaneBody=0;fillColor=none;collapsible=0;dropTarget=0;points=[[0,0.5],[1,0.5]];portConstraint=eastwest;top=0;left=0;right=0;bottom=0;" parent="B0asdBHlaRNwjjJLpjrR-88" vertex="1">
          <mxGeometry y="69" width="138" height="22" as="geometry" />
        </mxCell>
        <mxCell id="B0asdBHlaRNwjjJLpjrR-96" value="int" style="shape=partialRectangle;connectable=0;fillColor=none;top=0;left=0;bottom=0;right=0;align=left;spacingLeft=2;overflow=hidden;fontSize=11;" parent="B0asdBHlaRNwjjJLpjrR-95" vertex="1">
          <mxGeometry width="24" height="22" as="geometry">
            <mxRectangle width="24" height="22" as="alternateBounds" />
          </mxGeometry>
        </mxCell>
        <mxCell id="B0asdBHlaRNwjjJLpjrR-97" value="JetID" style="shape=partialRectangle;connectable=0;fillColor=none;top=0;left=0;bottom=0;right=0;align=left;spacingLeft=2;overflow=hidden;fontSize=11;" parent="B0asdBHlaRNwjjJLpjrR-95" vertex="1">
          <mxGeometry x="24" width="114" height="22" as="geometry">
            <mxRectangle width="114" height="22" as="alternateBounds" />
          </mxGeometry>
        </mxCell>
        <mxCell id="B0asdBHlaRNwjjJLpjrR-98" style="shape=tableRow;horizontal=0;startSize=0;swimlaneHead=0;swimlaneBody=0;fillColor=none;collapsible=0;dropTarget=0;points=[[0,0.5],[1,0.5]];portConstraint=eastwest;top=0;left=0;right=0;bottom=0;" parent="B0asdBHlaRNwjjJLpjrR-88" vertex="1">
          <mxGeometry y="91" width="138" height="22" as="geometry" />
        </mxCell>
        <mxCell id="B0asdBHlaRNwjjJLpjrR-99" value="date" style="shape=partialRectangle;connectable=0;fillColor=none;top=0;left=0;bottom=0;right=0;align=left;spacingLeft=2;overflow=hidden;fontSize=11;" parent="B0asdBHlaRNwjjJLpjrR-98" vertex="1">
          <mxGeometry width="24" height="22" as="geometry">
            <mxRectangle width="24" height="22" as="alternateBounds" />
          </mxGeometry>
        </mxCell>
        <mxCell id="B0asdBHlaRNwjjJLpjrR-100" value="AssignmentDate" style="shape=partialRectangle;connectable=0;fillColor=none;top=0;left=0;bottom=0;right=0;align=left;spacingLeft=2;overflow=hidden;fontSize=11;" parent="B0asdBHlaRNwjjJLpjrR-98" vertex="1">
          <mxGeometry x="24" width="114" height="22" as="geometry">
            <mxRectangle width="114" height="22" as="alternateBounds" />
          </mxGeometry>
        </mxCell>
        <mxCell id="B0asdBHlaRNwjjJLpjrR-101" value="Trips" style="shape=table;startSize=25;container=1;collapsible=0;childLayout=tableLayout;fixedRows=1;rowLines=1;fontStyle=1;align=center;resizeLast=1;" parent="1" vertex="1">
          <mxGeometry x="295" y="740" width="133" height="113" as="geometry" />
        </mxCell>
        <mxCell id="B0asdBHlaRNwjjJLpjrR-102" style="shape=tableRow;horizontal=0;startSize=0;swimlaneHead=0;swimlaneBody=0;fillColor=none;collapsible=0;dropTarget=0;points=[[0,0.5],[1,0.5]];portConstraint=eastwest;top=0;left=0;right=0;bottom=0;" parent="B0asdBHlaRNwjjJLpjrR-101" vertex="1">
          <mxGeometry y="25" width="133" height="22" as="geometry" />
        </mxCell>
        <mxCell id="B0asdBHlaRNwjjJLpjrR-103" value="int" style="shape=partialRectangle;connectable=0;fillColor=none;top=0;left=0;bottom=0;right=0;align=left;spacingLeft=2;overflow=hidden;fontSize=11;" parent="B0asdBHlaRNwjjJLpjrR-102" vertex="1">
          <mxGeometry width="42" height="22" as="geometry">
            <mxRectangle width="42" height="22" as="alternateBounds" />
          </mxGeometry>
        </mxCell>
        <mxCell id="B0asdBHlaRNwjjJLpjrR-104" value="TripID" style="shape=partialRectangle;connectable=0;fillColor=none;top=0;left=0;bottom=0;right=0;align=left;spacingLeft=2;overflow=hidden;fontSize=11;" parent="B0asdBHlaRNwjjJLpjrR-102" vertex="1">
          <mxGeometry x="42" width="91" height="22" as="geometry">
            <mxRectangle width="91" height="22" as="alternateBounds" />
          </mxGeometry>
        </mxCell>
        <mxCell id="B0asdBHlaRNwjjJLpjrR-105" style="shape=tableRow;horizontal=0;startSize=0;swimlaneHead=0;swimlaneBody=0;fillColor=none;collapsible=0;dropTarget=0;points=[[0,0.5],[1,0.5]];portConstraint=eastwest;top=0;left=0;right=0;bottom=0;" parent="B0asdBHlaRNwjjJLpjrR-101" vertex="1">
          <mxGeometry y="47" width="133" height="22" as="geometry" />
        </mxCell>
        <mxCell id="B0asdBHlaRNwjjJLpjrR-106" value="varchar" style="shape=partialRectangle;connectable=0;fillColor=none;top=0;left=0;bottom=0;right=0;align=left;spacingLeft=2;overflow=hidden;fontSize=11;" parent="B0asdBHlaRNwjjJLpjrR-105" vertex="1">
          <mxGeometry width="42" height="22" as="geometry">
            <mxRectangle width="42" height="22" as="alternateBounds" />
          </mxGeometry>
        </mxCell>
        <mxCell id="B0asdBHlaRNwjjJLpjrR-107" value="JetCode" style="shape=partialRectangle;connectable=0;fillColor=none;top=0;left=0;bottom=0;right=0;align=left;spacingLeft=2;overflow=hidden;fontSize=11;" parent="B0asdBHlaRNwjjJLpjrR-105" vertex="1">
          <mxGeometry x="42" width="91" height="22" as="geometry">
            <mxRectangle width="91" height="22" as="alternateBounds" />
          </mxGeometry>
        </mxCell>
        <mxCell id="B0asdBHlaRNwjjJLpjrR-108" style="shape=tableRow;horizontal=0;startSize=0;swimlaneHead=0;swimlaneBody=0;fillColor=none;collapsible=0;dropTarget=0;points=[[0,0.5],[1,0.5]];portConstraint=eastwest;top=0;left=0;right=0;bottom=0;" parent="B0asdBHlaRNwjjJLpjrR-101" vertex="1">
          <mxGeometry y="69" width="133" height="22" as="geometry" />
        </mxCell>
        <mxCell id="B0asdBHlaRNwjjJLpjrR-109" value="date" style="shape=partialRectangle;connectable=0;fillColor=none;top=0;left=0;bottom=0;right=0;align=left;spacingLeft=2;overflow=hidden;fontSize=11;" parent="B0asdBHlaRNwjjJLpjrR-108" vertex="1">
          <mxGeometry width="42" height="22" as="geometry">
            <mxRectangle width="42" height="22" as="alternateBounds" />
          </mxGeometry>
        </mxCell>
        <mxCell id="B0asdBHlaRNwjjJLpjrR-110" value="LaunchDate" style="shape=partialRectangle;connectable=0;fillColor=none;top=0;left=0;bottom=0;right=0;align=left;spacingLeft=2;overflow=hidden;fontSize=11;" parent="B0asdBHlaRNwjjJLpjrR-108" vertex="1">
          <mxGeometry x="42" width="91" height="22" as="geometry">
            <mxRectangle width="91" height="22" as="alternateBounds" />
          </mxGeometry>
        </mxCell>
        <mxCell id="B0asdBHlaRNwjjJLpjrR-111" style="shape=tableRow;horizontal=0;startSize=0;swimlaneHead=0;swimlaneBody=0;fillColor=none;collapsible=0;dropTarget=0;points=[[0,0.5],[1,0.5]];portConstraint=eastwest;top=0;left=0;right=0;bottom=0;" parent="B0asdBHlaRNwjjJLpjrR-101" vertex="1">
          <mxGeometry y="91" width="133" height="22" as="geometry" />
        </mxCell>
        <mxCell id="B0asdBHlaRNwjjJLpjrR-112" value="date" style="shape=partialRectangle;connectable=0;fillColor=none;top=0;left=0;bottom=0;right=0;align=left;spacingLeft=2;overflow=hidden;fontSize=11;" parent="B0asdBHlaRNwjjJLpjrR-111" vertex="1">
          <mxGeometry width="42" height="22" as="geometry">
            <mxRectangle width="42" height="22" as="alternateBounds" />
          </mxGeometry>
        </mxCell>
        <mxCell id="B0asdBHlaRNwjjJLpjrR-113" value="ReturnDate" style="shape=partialRectangle;connectable=0;fillColor=none;top=0;left=0;bottom=0;right=0;align=left;spacingLeft=2;overflow=hidden;fontSize=11;" parent="B0asdBHlaRNwjjJLpjrR-111" vertex="1">
          <mxGeometry x="42" width="91" height="22" as="geometry">
            <mxRectangle width="91" height="22" as="alternateBounds" />
          </mxGeometry>
        </mxCell>
        <mxCell id="B0asdBHlaRNwjjJLpjrR-114" value="ColonistTrips" style="shape=table;startSize=25;container=1;collapsible=0;childLayout=tableLayout;fixedRows=1;rowLines=1;fontStyle=1;align=center;resizeLast=1;" parent="1" vertex="1">
          <mxGeometry x="430" y="461" width="102" height="69" as="geometry" />
        </mxCell>
        <mxCell id="B0asdBHlaRNwjjJLpjrR-115" style="shape=tableRow;horizontal=0;startSize=0;swimlaneHead=0;swimlaneBody=0;fillColor=none;collapsible=0;dropTarget=0;points=[[0,0.5],[1,0.5]];portConstraint=eastwest;top=0;left=0;right=0;bottom=0;" parent="B0asdBHlaRNwjjJLpjrR-114" vertex="1">
          <mxGeometry y="25" width="102" height="22" as="geometry" />
        </mxCell>
        <mxCell id="B0asdBHlaRNwjjJLpjrR-116" value="int" style="shape=partialRectangle;connectable=0;fillColor=none;top=0;left=0;bottom=0;right=0;align=left;spacingLeft=2;overflow=hidden;fontSize=11;" parent="B0asdBHlaRNwjjJLpjrR-115" vertex="1">
          <mxGeometry width="18" height="22" as="geometry">
            <mxRectangle width="18" height="22" as="alternateBounds" />
          </mxGeometry>
        </mxCell>
        <mxCell id="B0asdBHlaRNwjjJLpjrR-117" value="TripID" style="shape=partialRectangle;connectable=0;fillColor=none;top=0;left=0;bottom=0;right=0;align=left;spacingLeft=2;overflow=hidden;fontSize=11;" parent="B0asdBHlaRNwjjJLpjrR-115" vertex="1">
          <mxGeometry x="18" width="84" height="22" as="geometry">
            <mxRectangle width="84" height="22" as="alternateBounds" />
          </mxGeometry>
        </mxCell>
        <mxCell id="B0asdBHlaRNwjjJLpjrR-118" style="shape=tableRow;horizontal=0;startSize=0;swimlaneHead=0;swimlaneBody=0;fillColor=none;collapsible=0;dropTarget=0;points=[[0,0.5],[1,0.5]];portConstraint=eastwest;top=0;left=0;right=0;bottom=0;" parent="B0asdBHlaRNwjjJLpjrR-114" vertex="1">
          <mxGeometry y="47" width="102" height="22" as="geometry" />
        </mxCell>
        <mxCell id="B0asdBHlaRNwjjJLpjrR-119" value="int" style="shape=partialRectangle;connectable=0;fillColor=none;top=0;left=0;bottom=0;right=0;align=left;spacingLeft=2;overflow=hidden;fontSize=11;" parent="B0asdBHlaRNwjjJLpjrR-118" vertex="1">
          <mxGeometry width="18" height="22" as="geometry">
            <mxRectangle width="18" height="22" as="alternateBounds" />
          </mxGeometry>
        </mxCell>
        <mxCell id="B0asdBHlaRNwjjJLpjrR-120" value="ColonistID" style="shape=partialRectangle;connectable=0;fillColor=none;top=0;left=0;bottom=0;right=0;align=left;spacingLeft=2;overflow=hidden;fontSize=11;" parent="B0asdBHlaRNwjjJLpjrR-118" vertex="1">
          <mxGeometry x="18" width="84" height="22" as="geometry">
            <mxRectangle width="84" height="22" as="alternateBounds" />
          </mxGeometry>
        </mxCell>
        <mxCell id="B0asdBHlaRNwjjJLpjrR-121" value="Houses" style="shape=table;startSize=25;container=1;collapsible=0;childLayout=tableLayout;fixedRows=1;rowLines=1;fontStyle=1;align=center;resizeLast=1;" parent="1" vertex="1">
          <mxGeometry x="550" y="684" width="161" height="135" as="geometry" />
        </mxCell>
        <mxCell id="B0asdBHlaRNwjjJLpjrR-122" style="shape=tableRow;horizontal=0;startSize=0;swimlaneHead=0;swimlaneBody=0;fillColor=none;collapsible=0;dropTarget=0;points=[[0,0.5],[1,0.5]];portConstraint=eastwest;top=0;left=0;right=0;bottom=0;" parent="B0asdBHlaRNwjjJLpjrR-121" vertex="1">
          <mxGeometry y="25" width="161" height="22" as="geometry" />
        </mxCell>
        <mxCell id="B0asdBHlaRNwjjJLpjrR-123" value="int" style="shape=partialRectangle;connectable=0;fillColor=none;top=0;left=0;bottom=0;right=0;align=left;spacingLeft=2;overflow=hidden;fontSize=11;" parent="B0asdBHlaRNwjjJLpjrR-122" vertex="1">
          <mxGeometry width="42" height="22" as="geometry">
            <mxRectangle width="42" height="22" as="alternateBounds" />
          </mxGeometry>
        </mxCell>
        <mxCell id="B0asdBHlaRNwjjJLpjrR-124" value="HouseID" style="shape=partialRectangle;connectable=0;fillColor=none;top=0;left=0;bottom=0;right=0;align=left;spacingLeft=2;overflow=hidden;fontSize=11;" parent="B0asdBHlaRNwjjJLpjrR-122" vertex="1">
          <mxGeometry x="42" width="119" height="22" as="geometry">
            <mxRectangle width="119" height="22" as="alternateBounds" />
          </mxGeometry>
        </mxCell>
        <mxCell id="B0asdBHlaRNwjjJLpjrR-125" style="shape=tableRow;horizontal=0;startSize=0;swimlaneHead=0;swimlaneBody=0;fillColor=none;collapsible=0;dropTarget=0;points=[[0,0.5],[1,0.5]];portConstraint=eastwest;top=0;left=0;right=0;bottom=0;" parent="B0asdBHlaRNwjjJLpjrR-121" vertex="1">
          <mxGeometry y="47" width="161" height="22" as="geometry" />
        </mxCell>
        <mxCell id="B0asdBHlaRNwjjJLpjrR-126" value="varchar" style="shape=partialRectangle;connectable=0;fillColor=none;top=0;left=0;bottom=0;right=0;align=left;spacingLeft=2;overflow=hidden;fontSize=11;" parent="B0asdBHlaRNwjjJLpjrR-125" vertex="1">
          <mxGeometry width="42" height="22" as="geometry">
            <mxRectangle width="42" height="22" as="alternateBounds" />
          </mxGeometry>
        </mxCell>
        <mxCell id="B0asdBHlaRNwjjJLpjrR-127" value="ColonyLotNumber" style="shape=partialRectangle;connectable=0;fillColor=none;top=0;left=0;bottom=0;right=0;align=left;spacingLeft=2;overflow=hidden;fontSize=11;" parent="B0asdBHlaRNwjjJLpjrR-125" vertex="1">
          <mxGeometry x="42" width="119" height="22" as="geometry">
            <mxRectangle width="119" height="22" as="alternateBounds" />
          </mxGeometry>
        </mxCell>
        <mxCell id="B0asdBHlaRNwjjJLpjrR-128" style="shape=tableRow;horizontal=0;startSize=0;swimlaneHead=0;swimlaneBody=0;fillColor=none;collapsible=0;dropTarget=0;points=[[0,0.5],[1,0.5]];portConstraint=eastwest;top=0;left=0;right=0;bottom=0;" parent="B0asdBHlaRNwjjJLpjrR-121" vertex="1">
          <mxGeometry y="69" width="161" height="22" as="geometry" />
        </mxCell>
        <mxCell id="B0asdBHlaRNwjjJLpjrR-129" value="int" style="shape=partialRectangle;connectable=0;fillColor=none;top=0;left=0;bottom=0;right=0;align=left;spacingLeft=2;overflow=hidden;fontSize=11;" parent="B0asdBHlaRNwjjJLpjrR-128" vertex="1">
          <mxGeometry width="42" height="22" as="geometry">
            <mxRectangle width="42" height="22" as="alternateBounds" />
          </mxGeometry>
        </mxCell>
        <mxCell id="B0asdBHlaRNwjjJLpjrR-130" value="NumberOfRooms" style="shape=partialRectangle;connectable=0;fillColor=none;top=0;left=0;bottom=0;right=0;align=left;spacingLeft=2;overflow=hidden;fontSize=11;" parent="B0asdBHlaRNwjjJLpjrR-128" vertex="1">
          <mxGeometry x="42" width="119" height="22" as="geometry">
            <mxRectangle width="119" height="22" as="alternateBounds" />
          </mxGeometry>
        </mxCell>
        <mxCell id="B0asdBHlaRNwjjJLpjrR-131" style="shape=tableRow;horizontal=0;startSize=0;swimlaneHead=0;swimlaneBody=0;fillColor=none;collapsible=0;dropTarget=0;points=[[0,0.5],[1,0.5]];portConstraint=eastwest;top=0;left=0;right=0;bottom=0;" parent="B0asdBHlaRNwjjJLpjrR-121" vertex="1">
          <mxGeometry y="91" width="161" height="22" as="geometry" />
        </mxCell>
        <mxCell id="B0asdBHlaRNwjjJLpjrR-132" value="decimal" style="shape=partialRectangle;connectable=0;fillColor=none;top=0;left=0;bottom=0;right=0;align=left;spacingLeft=2;overflow=hidden;fontSize=11;" parent="B0asdBHlaRNwjjJLpjrR-131" vertex="1">
          <mxGeometry width="42" height="22" as="geometry">
            <mxRectangle width="42" height="22" as="alternateBounds" />
          </mxGeometry>
        </mxCell>
        <mxCell id="B0asdBHlaRNwjjJLpjrR-133" value="SquareFeet" style="shape=partialRectangle;connectable=0;fillColor=none;top=0;left=0;bottom=0;right=0;align=left;spacingLeft=2;overflow=hidden;fontSize=11;" parent="B0asdBHlaRNwjjJLpjrR-131" vertex="1">
          <mxGeometry x="42" width="119" height="22" as="geometry">
            <mxRectangle width="119" height="22" as="alternateBounds" />
          </mxGeometry>
        </mxCell>
        <mxCell id="B0asdBHlaRNwjjJLpjrR-134" style="shape=tableRow;horizontal=0;startSize=0;swimlaneHead=0;swimlaneBody=0;fillColor=none;collapsible=0;dropTarget=0;points=[[0,0.5],[1,0.5]];portConstraint=eastwest;top=0;left=0;right=0;bottom=0;" parent="B0asdBHlaRNwjjJLpjrR-121" vertex="1">
          <mxGeometry y="113" width="161" height="22" as="geometry" />
        </mxCell>
        <mxCell id="B0asdBHlaRNwjjJLpjrR-135" value="bit" style="shape=partialRectangle;connectable=0;fillColor=none;top=0;left=0;bottom=0;right=0;align=left;spacingLeft=2;overflow=hidden;fontSize=11;" parent="B0asdBHlaRNwjjJLpjrR-134" vertex="1">
          <mxGeometry width="42" height="22" as="geometry">
            <mxRectangle width="42" height="22" as="alternateBounds" />
          </mxGeometry>
        </mxCell>
        <mxCell id="B0asdBHlaRNwjjJLpjrR-136" value="IsAssigned" style="shape=partialRectangle;connectable=0;fillColor=none;top=0;left=0;bottom=0;right=0;align=left;spacingLeft=2;overflow=hidden;fontSize=11;" parent="B0asdBHlaRNwjjJLpjrR-134" vertex="1">
          <mxGeometry x="42" width="119" height="22" as="geometry">
            <mxRectangle width="119" height="22" as="alternateBounds" />
          </mxGeometry>
        </mxCell>
        <mxCell id="B0asdBHlaRNwjjJLpjrR-137" value="ColonistHouses" style="shape=table;startSize=25;container=1;collapsible=0;childLayout=tableLayout;fixedRows=1;rowLines=1;fontStyle=1;align=center;resizeLast=1;" parent="1" vertex="1">
          <mxGeometry x="589" y="461" width="110" height="69" as="geometry" />
        </mxCell>
        <mxCell id="B0asdBHlaRNwjjJLpjrR-138" style="shape=tableRow;horizontal=0;startSize=0;swimlaneHead=0;swimlaneBody=0;fillColor=none;collapsible=0;dropTarget=0;points=[[0,0.5],[1,0.5]];portConstraint=eastwest;top=0;left=0;right=0;bottom=0;" parent="B0asdBHlaRNwjjJLpjrR-137" vertex="1">
          <mxGeometry y="25" width="110" height="22" as="geometry" />
        </mxCell>
        <mxCell id="B0asdBHlaRNwjjJLpjrR-139" value="int" style="shape=partialRectangle;connectable=0;fillColor=none;top=0;left=0;bottom=0;right=0;align=left;spacingLeft=2;overflow=hidden;fontSize=11;" parent="B0asdBHlaRNwjjJLpjrR-138" vertex="1">
          <mxGeometry width="18" height="22" as="geometry">
            <mxRectangle width="18" height="22" as="alternateBounds" />
          </mxGeometry>
        </mxCell>
        <mxCell id="B0asdBHlaRNwjjJLpjrR-140" value="HouseID" style="shape=partialRectangle;connectable=0;fillColor=none;top=0;left=0;bottom=0;right=0;align=left;spacingLeft=2;overflow=hidden;fontSize=11;" parent="B0asdBHlaRNwjjJLpjrR-138" vertex="1">
          <mxGeometry x="18" width="92" height="22" as="geometry">
            <mxRectangle width="92" height="22" as="alternateBounds" />
          </mxGeometry>
        </mxCell>
        <mxCell id="B0asdBHlaRNwjjJLpjrR-141" style="shape=tableRow;horizontal=0;startSize=0;swimlaneHead=0;swimlaneBody=0;fillColor=none;collapsible=0;dropTarget=0;points=[[0,0.5],[1,0.5]];portConstraint=eastwest;top=0;left=0;right=0;bottom=0;" parent="B0asdBHlaRNwjjJLpjrR-137" vertex="1">
          <mxGeometry y="47" width="110" height="22" as="geometry" />
        </mxCell>
        <mxCell id="B0asdBHlaRNwjjJLpjrR-142" value="int" style="shape=partialRectangle;connectable=0;fillColor=none;top=0;left=0;bottom=0;right=0;align=left;spacingLeft=2;overflow=hidden;fontSize=11;" parent="B0asdBHlaRNwjjJLpjrR-141" vertex="1">
          <mxGeometry width="18" height="22" as="geometry">
            <mxRectangle width="18" height="22" as="alternateBounds" />
          </mxGeometry>
        </mxCell>
        <mxCell id="B0asdBHlaRNwjjJLpjrR-143" value="ColonistID" style="shape=partialRectangle;connectable=0;fillColor=none;top=0;left=0;bottom=0;right=0;align=left;spacingLeft=2;overflow=hidden;fontSize=11;" parent="B0asdBHlaRNwjjJLpjrR-141" vertex="1">
          <mxGeometry x="18" width="92" height="22" as="geometry">
            <mxRectangle width="92" height="22" as="alternateBounds" />
          </mxGeometry>
        </mxCell>
        <mxCell id="B0asdBHlaRNwjjJLpjrR-144" value="Jobs" style="shape=table;startSize=25;container=1;collapsible=0;childLayout=tableLayout;fixedRows=1;rowLines=1;fontStyle=1;align=center;resizeLast=1;" parent="1" vertex="1">
          <mxGeometry x="730" y="716" width="117" height="69" as="geometry" />
        </mxCell>
        <mxCell id="B0asdBHlaRNwjjJLpjrR-145" style="shape=tableRow;horizontal=0;startSize=0;swimlaneHead=0;swimlaneBody=0;fillColor=none;collapsible=0;dropTarget=0;points=[[0,0.5],[1,0.5]];portConstraint=eastwest;top=0;left=0;right=0;bottom=0;" parent="B0asdBHlaRNwjjJLpjrR-144" vertex="1">
          <mxGeometry y="25" width="117" height="22" as="geometry" />
        </mxCell>
        <mxCell id="B0asdBHlaRNwjjJLpjrR-146" value="int" style="shape=partialRectangle;connectable=0;fillColor=none;top=0;left=0;bottom=0;right=0;align=left;spacingLeft=2;overflow=hidden;fontSize=11;" parent="B0asdBHlaRNwjjJLpjrR-145" vertex="1">
          <mxGeometry width="42" height="22" as="geometry">
            <mxRectangle width="42" height="22" as="alternateBounds" />
          </mxGeometry>
        </mxCell>
        <mxCell id="B0asdBHlaRNwjjJLpjrR-147" value="JobID" style="shape=partialRectangle;connectable=0;fillColor=none;top=0;left=0;bottom=0;right=0;align=left;spacingLeft=2;overflow=hidden;fontSize=11;" parent="B0asdBHlaRNwjjJLpjrR-145" vertex="1">
          <mxGeometry x="42" width="75" height="22" as="geometry">
            <mxRectangle width="75" height="22" as="alternateBounds" />
          </mxGeometry>
        </mxCell>
        <mxCell id="B0asdBHlaRNwjjJLpjrR-148" style="shape=tableRow;horizontal=0;startSize=0;swimlaneHead=0;swimlaneBody=0;fillColor=none;collapsible=0;dropTarget=0;points=[[0,0.5],[1,0.5]];portConstraint=eastwest;top=0;left=0;right=0;bottom=0;" parent="B0asdBHlaRNwjjJLpjrR-144" vertex="1">
          <mxGeometry y="47" width="117" height="22" as="geometry" />
        </mxCell>
        <mxCell id="B0asdBHlaRNwjjJLpjrR-149" value="varchar" style="shape=partialRectangle;connectable=0;fillColor=none;top=0;left=0;bottom=0;right=0;align=left;spacingLeft=2;overflow=hidden;fontSize=11;" parent="B0asdBHlaRNwjjJLpjrR-148" vertex="1">
          <mxGeometry width="42" height="22" as="geometry">
            <mxRectangle width="42" height="22" as="alternateBounds" />
          </mxGeometry>
        </mxCell>
        <mxCell id="B0asdBHlaRNwjjJLpjrR-150" value="JobTitle" style="shape=partialRectangle;connectable=0;fillColor=none;top=0;left=0;bottom=0;right=0;align=left;spacingLeft=2;overflow=hidden;fontSize=11;" parent="B0asdBHlaRNwjjJLpjrR-148" vertex="1">
          <mxGeometry x="42" width="75" height="22" as="geometry">
            <mxRectangle width="75" height="22" as="alternateBounds" />
          </mxGeometry>
        </mxCell>
        <mxCell id="B0asdBHlaRNwjjJLpjrR-151" value="ColonistJobs" style="shape=table;startSize=25;container=1;collapsible=0;childLayout=tableLayout;fixedRows=1;rowLines=1;fontStyle=1;align=center;resizeLast=1;" parent="1" vertex="1">
          <mxGeometry x="741" y="460" width="102" height="69" as="geometry" />
        </mxCell>
        <mxCell id="B0asdBHlaRNwjjJLpjrR-152" style="shape=tableRow;horizontal=0;startSize=0;swimlaneHead=0;swimlaneBody=0;fillColor=none;collapsible=0;dropTarget=0;points=[[0,0.5],[1,0.5]];portConstraint=eastwest;top=0;left=0;right=0;bottom=0;" parent="B0asdBHlaRNwjjJLpjrR-151" vertex="1">
          <mxGeometry y="25" width="102" height="22" as="geometry" />
        </mxCell>
        <mxCell id="B0asdBHlaRNwjjJLpjrR-153" value="int" style="shape=partialRectangle;connectable=0;fillColor=none;top=0;left=0;bottom=0;right=0;align=left;spacingLeft=2;overflow=hidden;fontSize=11;" parent="B0asdBHlaRNwjjJLpjrR-152" vertex="1">
          <mxGeometry width="18" height="22" as="geometry">
            <mxRectangle width="18" height="22" as="alternateBounds" />
          </mxGeometry>
        </mxCell>
        <mxCell id="B0asdBHlaRNwjjJLpjrR-154" value="ColonistID" style="shape=partialRectangle;connectable=0;fillColor=none;top=0;left=0;bottom=0;right=0;align=left;spacingLeft=2;overflow=hidden;fontSize=11;" parent="B0asdBHlaRNwjjJLpjrR-152" vertex="1">
          <mxGeometry x="18" width="84" height="22" as="geometry">
            <mxRectangle width="84" height="22" as="alternateBounds" />
          </mxGeometry>
        </mxCell>
        <mxCell id="B0asdBHlaRNwjjJLpjrR-155" style="shape=tableRow;horizontal=0;startSize=0;swimlaneHead=0;swimlaneBody=0;fillColor=none;collapsible=0;dropTarget=0;points=[[0,0.5],[1,0.5]];portConstraint=eastwest;top=0;left=0;right=0;bottom=0;" parent="B0asdBHlaRNwjjJLpjrR-151" vertex="1">
          <mxGeometry y="47" width="102" height="22" as="geometry" />
        </mxCell>
        <mxCell id="B0asdBHlaRNwjjJLpjrR-156" value="int" style="shape=partialRectangle;connectable=0;fillColor=none;top=0;left=0;bottom=0;right=0;align=left;spacingLeft=2;overflow=hidden;fontSize=11;" parent="B0asdBHlaRNwjjJLpjrR-155" vertex="1">
          <mxGeometry width="18" height="22" as="geometry">
            <mxRectangle width="18" height="22" as="alternateBounds" />
          </mxGeometry>
        </mxCell>
        <mxCell id="B0asdBHlaRNwjjJLpjrR-157" value="JobID" style="shape=partialRectangle;connectable=0;fillColor=none;top=0;left=0;bottom=0;right=0;align=left;spacingLeft=2;overflow=hidden;fontSize=11;" parent="B0asdBHlaRNwjjJLpjrR-155" vertex="1">
          <mxGeometry x="18" width="84" height="22" as="geometry">
            <mxRectangle width="84" height="22" as="alternateBounds" />
          </mxGeometry>
        </mxCell>
        <mxCell id="B0asdBHlaRNwjjJLpjrR-158" value="Pilots" style="shape=table;startSize=25;container=1;collapsible=0;childLayout=tableLayout;fixedRows=1;rowLines=1;fontStyle=1;align=center;resizeLast=1;" parent="1" vertex="1">
          <mxGeometry x="24.5" y="20" width="143" height="157" as="geometry" />
        </mxCell>
        <mxCell id="B0asdBHlaRNwjjJLpjrR-159" style="shape=tableRow;horizontal=0;startSize=0;swimlaneHead=0;swimlaneBody=0;fillColor=none;collapsible=0;dropTarget=0;points=[[0,0.5],[1,0.5]];portConstraint=eastwest;top=0;left=0;right=0;bottom=0;" parent="B0asdBHlaRNwjjJLpjrR-158" vertex="1">
          <mxGeometry y="25" width="143" height="22" as="geometry" />
        </mxCell>
        <mxCell id="B0asdBHlaRNwjjJLpjrR-160" value="int" style="shape=partialRectangle;connectable=0;fillColor=none;top=0;left=0;bottom=0;right=0;align=left;spacingLeft=2;overflow=hidden;fontSize=11;" parent="B0asdBHlaRNwjjJLpjrR-159" vertex="1">
          <mxGeometry width="42" height="22" as="geometry">
            <mxRectangle width="42" height="22" as="alternateBounds" />
          </mxGeometry>
        </mxCell>
        <mxCell id="B0asdBHlaRNwjjJLpjrR-161" value="PilotID" style="shape=partialRectangle;connectable=0;fillColor=none;top=0;left=0;bottom=0;right=0;align=left;spacingLeft=2;overflow=hidden;fontSize=11;" parent="B0asdBHlaRNwjjJLpjrR-159" vertex="1">
          <mxGeometry x="42" width="101" height="22" as="geometry">
            <mxRectangle width="101" height="22" as="alternateBounds" />
          </mxGeometry>
        </mxCell>
        <mxCell id="B0asdBHlaRNwjjJLpjrR-162" style="shape=tableRow;horizontal=0;startSize=0;swimlaneHead=0;swimlaneBody=0;fillColor=none;collapsible=0;dropTarget=0;points=[[0,0.5],[1,0.5]];portConstraint=eastwest;top=0;left=0;right=0;bottom=0;" parent="B0asdBHlaRNwjjJLpjrR-158" vertex="1">
          <mxGeometry y="47" width="143" height="22" as="geometry" />
        </mxCell>
        <mxCell id="B0asdBHlaRNwjjJLpjrR-163" value="varchar" style="shape=partialRectangle;connectable=0;fillColor=none;top=0;left=0;bottom=0;right=0;align=left;spacingLeft=2;overflow=hidden;fontSize=11;" parent="B0asdBHlaRNwjjJLpjrR-162" vertex="1">
          <mxGeometry width="42" height="22" as="geometry">
            <mxRectangle width="42" height="22" as="alternateBounds" />
          </mxGeometry>
        </mxCell>
        <mxCell id="B0asdBHlaRNwjjJLpjrR-164" value="FirstName" style="shape=partialRectangle;connectable=0;fillColor=none;top=0;left=0;bottom=0;right=0;align=left;spacingLeft=2;overflow=hidden;fontSize=11;" parent="B0asdBHlaRNwjjJLpjrR-162" vertex="1">
          <mxGeometry x="42" width="101" height="22" as="geometry">
            <mxRectangle width="101" height="22" as="alternateBounds" />
          </mxGeometry>
        </mxCell>
        <mxCell id="B0asdBHlaRNwjjJLpjrR-165" style="shape=tableRow;horizontal=0;startSize=0;swimlaneHead=0;swimlaneBody=0;fillColor=none;collapsible=0;dropTarget=0;points=[[0,0.5],[1,0.5]];portConstraint=eastwest;top=0;left=0;right=0;bottom=0;" parent="B0asdBHlaRNwjjJLpjrR-158" vertex="1">
          <mxGeometry y="69" width="143" height="22" as="geometry" />
        </mxCell>
        <mxCell id="B0asdBHlaRNwjjJLpjrR-166" value="varchar" style="shape=partialRectangle;connectable=0;fillColor=none;top=0;left=0;bottom=0;right=0;align=left;spacingLeft=2;overflow=hidden;fontSize=11;" parent="B0asdBHlaRNwjjJLpjrR-165" vertex="1">
          <mxGeometry width="42" height="22" as="geometry">
            <mxRectangle width="42" height="22" as="alternateBounds" />
          </mxGeometry>
        </mxCell>
        <mxCell id="B0asdBHlaRNwjjJLpjrR-167" value="LastName" style="shape=partialRectangle;connectable=0;fillColor=none;top=0;left=0;bottom=0;right=0;align=left;spacingLeft=2;overflow=hidden;fontSize=11;" parent="B0asdBHlaRNwjjJLpjrR-165" vertex="1">
          <mxGeometry x="42" width="101" height="22" as="geometry">
            <mxRectangle width="101" height="22" as="alternateBounds" />
          </mxGeometry>
        </mxCell>
        <mxCell id="B0asdBHlaRNwjjJLpjrR-168" style="shape=tableRow;horizontal=0;startSize=0;swimlaneHead=0;swimlaneBody=0;fillColor=none;collapsible=0;dropTarget=0;points=[[0,0.5],[1,0.5]];portConstraint=eastwest;top=0;left=0;right=0;bottom=0;" parent="B0asdBHlaRNwjjJLpjrR-158" vertex="1">
          <mxGeometry y="91" width="143" height="22" as="geometry" />
        </mxCell>
        <mxCell id="B0asdBHlaRNwjjJLpjrR-169" value="int" style="shape=partialRectangle;connectable=0;fillColor=none;top=0;left=0;bottom=0;right=0;align=left;spacingLeft=2;overflow=hidden;fontSize=11;" parent="B0asdBHlaRNwjjJLpjrR-168" vertex="1">
          <mxGeometry width="42" height="22" as="geometry">
            <mxRectangle width="42" height="22" as="alternateBounds" />
          </mxGeometry>
        </mxCell>
        <mxCell id="B0asdBHlaRNwjjJLpjrR-170" value="SpaceHours" style="shape=partialRectangle;connectable=0;fillColor=none;top=0;left=0;bottom=0;right=0;align=left;spacingLeft=2;overflow=hidden;fontSize=11;" parent="B0asdBHlaRNwjjJLpjrR-168" vertex="1">
          <mxGeometry x="42" width="101" height="22" as="geometry">
            <mxRectangle width="101" height="22" as="alternateBounds" />
          </mxGeometry>
        </mxCell>
        <mxCell id="B0asdBHlaRNwjjJLpjrR-171" style="shape=tableRow;horizontal=0;startSize=0;swimlaneHead=0;swimlaneBody=0;fillColor=none;collapsible=0;dropTarget=0;points=[[0,0.5],[1,0.5]];portConstraint=eastwest;top=0;left=0;right=0;bottom=0;" parent="B0asdBHlaRNwjjJLpjrR-158" vertex="1">
          <mxGeometry y="113" width="143" height="22" as="geometry" />
        </mxCell>
        <mxCell id="B0asdBHlaRNwjjJLpjrR-172" value="varchar" style="shape=partialRectangle;connectable=0;fillColor=none;top=0;left=0;bottom=0;right=0;align=left;spacingLeft=2;overflow=hidden;fontSize=11;" parent="B0asdBHlaRNwjjJLpjrR-171" vertex="1">
          <mxGeometry width="42" height="22" as="geometry">
            <mxRectangle width="42" height="22" as="alternateBounds" />
          </mxGeometry>
        </mxCell>
        <mxCell id="B0asdBHlaRNwjjJLpjrR-173" value="Qualifications" style="shape=partialRectangle;connectable=0;fillColor=none;top=0;left=0;bottom=0;right=0;align=left;spacingLeft=2;overflow=hidden;fontSize=11;" parent="B0asdBHlaRNwjjJLpjrR-171" vertex="1">
          <mxGeometry x="42" width="101" height="22" as="geometry">
            <mxRectangle width="101" height="22" as="alternateBounds" />
          </mxGeometry>
        </mxCell>
        <mxCell id="B0asdBHlaRNwjjJLpjrR-174" style="shape=tableRow;horizontal=0;startSize=0;swimlaneHead=0;swimlaneBody=0;fillColor=none;collapsible=0;dropTarget=0;points=[[0,0.5],[1,0.5]];portConstraint=eastwest;top=0;left=0;right=0;bottom=0;" parent="B0asdBHlaRNwjjJLpjrR-158" vertex="1">
          <mxGeometry y="135" width="143" height="22" as="geometry" />
        </mxCell>
        <mxCell id="B0asdBHlaRNwjjJLpjrR-175" value="varchar" style="shape=partialRectangle;connectable=0;fillColor=none;top=0;left=0;bottom=0;right=0;align=left;spacingLeft=2;overflow=hidden;fontSize=11;" parent="B0asdBHlaRNwjjJLpjrR-174" vertex="1">
          <mxGeometry width="42" height="22" as="geometry">
            <mxRectangle width="42" height="22" as="alternateBounds" />
          </mxGeometry>
        </mxCell>
        <mxCell id="B0asdBHlaRNwjjJLpjrR-176" value="Rank" style="shape=partialRectangle;connectable=0;fillColor=none;top=0;left=0;bottom=0;right=0;align=left;spacingLeft=2;overflow=hidden;fontSize=11;" parent="B0asdBHlaRNwjjJLpjrR-174" vertex="1">
          <mxGeometry x="42" width="101" height="22" as="geometry">
            <mxRectangle width="101" height="22" as="alternateBounds" />
          </mxGeometry>
        </mxCell>
        <mxCell id="B0asdBHlaRNwjjJLpjrR-205" value="" style="endArrow=none;html=1;rounded=0;entryX=0.493;entryY=0.984;entryDx=0;entryDy=0;entryPerimeter=0;exitX=0.5;exitY=0;exitDx=0;exitDy=0;" parent="1" source="B0asdBHlaRNwjjJLpjrR-88" target="B0asdBHlaRNwjjJLpjrR-174" edge="1">
          <mxGeometry width="50" height="50" relative="1" as="geometry">
            <mxPoint y="260" as="sourcePoint" />
            <mxPoint x="50" y="210" as="targetPoint" />
          </mxGeometry>
        </mxCell>
        <mxCell id="B0asdBHlaRNwjjJLpjrR-206" value="operates" style="edgeLabel;html=1;align=center;verticalAlign=middle;resizable=0;points=[];" parent="B0asdBHlaRNwjjJLpjrR-205" vertex="1" connectable="0">
          <mxGeometry x="0.0427" y="1" relative="1" as="geometry">
            <mxPoint as="offset" />
          </mxGeometry>
        </mxCell>
        <mxCell id="B0asdBHlaRNwjjJLpjrR-207" value="" style="endArrow=none;html=1;rounded=0;entryX=0.513;entryY=1.022;entryDx=0;entryDy=0;entryPerimeter=0;exitX=0.5;exitY=0;exitDx=0;exitDy=0;" parent="1" source="B0asdBHlaRNwjjJLpjrR-63" target="B0asdBHlaRNwjjJLpjrR-98" edge="1">
          <mxGeometry width="50" height="50" relative="1" as="geometry">
            <mxPoint x="-10" y="480" as="sourcePoint" />
            <mxPoint x="40" y="430" as="targetPoint" />
          </mxGeometry>
        </mxCell>
        <mxCell id="B0asdBHlaRNwjjJLpjrR-208" value="assigned_to" style="edgeLabel;html=1;align=center;verticalAlign=middle;resizable=0;points=[];" parent="B0asdBHlaRNwjjJLpjrR-207" vertex="1" connectable="0">
          <mxGeometry x="-0.066" relative="1" as="geometry">
            <mxPoint as="offset" />
          </mxGeometry>
        </mxCell>
        <mxCell id="B0asdBHlaRNwjjJLpjrR-209" value="" style="endArrow=none;html=1;rounded=0;entryX=0.479;entryY=1.003;entryDx=0;entryDy=0;entryPerimeter=0;exitX=-0.002;exitY=0.114;exitDx=0;exitDy=0;exitPerimeter=0;" parent="1" source="B0asdBHlaRNwjjJLpjrR-101" target="B0asdBHlaRNwjjJLpjrR-85" edge="1">
          <mxGeometry width="50" height="50" relative="1" as="geometry">
            <mxPoint x="60" y="830" as="sourcePoint" />
            <mxPoint x="110" y="780" as="targetPoint" />
          </mxGeometry>
        </mxCell>
        <mxCell id="B0asdBHlaRNwjjJLpjrR-210" value="is_used" style="edgeLabel;html=1;align=center;verticalAlign=middle;resizable=0;points=[];" parent="B0asdBHlaRNwjjJLpjrR-209" vertex="1" connectable="0">
          <mxGeometry x="0.0514" y="1" relative="1" as="geometry">
            <mxPoint as="offset" />
          </mxGeometry>
        </mxCell>
        <mxCell id="B0asdBHlaRNwjjJLpjrR-211" value="" style="endArrow=none;html=1;rounded=0;entryX=0;entryY=0.75;entryDx=0;entryDy=0;exitX=0.25;exitY=0;exitDx=0;exitDy=0;" parent="1" source="B0asdBHlaRNwjjJLpjrR-41" target="B0asdBHlaRNwjjJLpjrR-1" edge="1">
          <mxGeometry width="50" height="50" relative="1" as="geometry">
            <mxPoint x="250" y="300" as="sourcePoint" />
            <mxPoint x="300" y="250" as="targetPoint" />
          </mxGeometry>
        </mxCell>
        <mxCell id="B0asdBHlaRNwjjJLpjrR-212" value="has" style="edgeLabel;html=1;align=center;verticalAlign=middle;resizable=0;points=[];" parent="B0asdBHlaRNwjjJLpjrR-211" vertex="1" connectable="0">
          <mxGeometry x="0.1" y="-1" relative="1" as="geometry">
            <mxPoint as="offset" />
          </mxGeometry>
        </mxCell>
        <mxCell id="B0asdBHlaRNwjjJLpjrR-213" value="" style="endArrow=none;html=1;rounded=0;entryX=0;entryY=1;entryDx=0;entryDy=0;exitX=0.75;exitY=0;exitDx=0;exitDy=0;" parent="1" source="B0asdBHlaRNwjjJLpjrR-41" target="B0asdBHlaRNwjjJLpjrR-1" edge="1">
          <mxGeometry width="50" height="50" relative="1" as="geometry">
            <mxPoint x="320" y="389" as="sourcePoint" />
            <mxPoint x="370" y="339" as="targetPoint" />
          </mxGeometry>
        </mxCell>
        <mxCell id="B0asdBHlaRNwjjJLpjrR-214" value="belongs to" style="edgeLabel;html=1;align=center;verticalAlign=middle;resizable=0;points=[];" parent="B0asdBHlaRNwjjJLpjrR-213" vertex="1" connectable="0">
          <mxGeometry x="-0.03" relative="1" as="geometry">
            <mxPoint x="-2" y="-4" as="offset" />
          </mxGeometry>
        </mxCell>
        <mxCell id="B0asdBHlaRNwjjJLpjrR-215" value="" style="endArrow=none;html=1;rounded=0;entryX=0.543;entryY=0.98;entryDx=0;entryDy=0;entryPerimeter=0;exitX=0.5;exitY=0;exitDx=0;exitDy=0;" parent="1" source="B0asdBHlaRNwjjJLpjrR-114" target="B0asdBHlaRNwjjJLpjrR-38" edge="1">
          <mxGeometry width="50" height="50" relative="1" as="geometry">
            <mxPoint x="420" y="430" as="sourcePoint" />
            <mxPoint x="470" y="380" as="targetPoint" />
          </mxGeometry>
        </mxCell>
        <mxCell id="B0asdBHlaRNwjjJLpjrR-217" value="books" style="edgeLabel;html=1;align=center;verticalAlign=middle;resizable=0;points=[];" parent="B0asdBHlaRNwjjJLpjrR-215" vertex="1" connectable="0">
          <mxGeometry x="0.0371" y="1" relative="1" as="geometry">
            <mxPoint as="offset" />
          </mxGeometry>
        </mxCell>
        <mxCell id="B0asdBHlaRNwjjJLpjrR-218" value="" style="endArrow=none;html=1;rounded=0;exitX=0.5;exitY=0;exitDx=0;exitDy=0;entryX=1;entryY=0.5;entryDx=0;entryDy=0;" parent="1" source="B0asdBHlaRNwjjJLpjrR-137" target="B0asdBHlaRNwjjJLpjrR-32" edge="1">
          <mxGeometry width="50" height="50" relative="1" as="geometry">
            <mxPoint x="620" y="390" as="sourcePoint" />
            <mxPoint x="670" y="340" as="targetPoint" />
          </mxGeometry>
        </mxCell>
        <mxCell id="B0asdBHlaRNwjjJLpjrR-219" value="assigns" style="edgeLabel;html=1;align=center;verticalAlign=middle;resizable=0;points=[];" parent="B0asdBHlaRNwjjJLpjrR-218" vertex="1" connectable="0">
          <mxGeometry x="0.04" y="1" relative="1" as="geometry">
            <mxPoint as="offset" />
          </mxGeometry>
        </mxCell>
        <mxCell id="B0asdBHlaRNwjjJLpjrR-220" value="" style="endArrow=none;html=1;rounded=0;exitX=1;exitY=0.5;exitDx=0;exitDy=0;entryX=0;entryY=0;entryDx=0;entryDy=0;" parent="1" source="B0asdBHlaRNwjjJLpjrR-26" target="B0asdBHlaRNwjjJLpjrR-151" edge="1">
          <mxGeometry width="50" height="50" relative="1" as="geometry">
            <mxPoint x="670" y="260" as="sourcePoint" />
            <mxPoint x="720" y="210" as="targetPoint" />
          </mxGeometry>
        </mxCell>
        <mxCell id="B0asdBHlaRNwjjJLpjrR-221" value="works" style="edgeLabel;html=1;align=center;verticalAlign=middle;resizable=0;points=[];" parent="B0asdBHlaRNwjjJLpjrR-220" vertex="1" connectable="0">
          <mxGeometry x="-0.06" relative="1" as="geometry">
            <mxPoint as="offset" />
          </mxGeometry>
        </mxCell>
        <mxCell id="B0asdBHlaRNwjjJLpjrR-222" value="" style="endArrow=none;html=1;rounded=0;entryX=0.368;entryY=0.97;entryDx=0;entryDy=0;entryPerimeter=0;exitX=0.5;exitY=0;exitDx=0;exitDy=0;" parent="1" source="B0asdBHlaRNwjjJLpjrR-121" target="B0asdBHlaRNwjjJLpjrR-141" edge="1">
          <mxGeometry width="50" height="50" relative="1" as="geometry">
            <mxPoint x="588" y="626" as="sourcePoint" />
            <mxPoint x="638" y="576" as="targetPoint" />
          </mxGeometry>
        </mxCell>
        <mxCell id="B0asdBHlaRNwjjJLpjrR-223" value="resides in" style="edgeLabel;html=1;align=center;verticalAlign=middle;resizable=0;points=[];" parent="B0asdBHlaRNwjjJLpjrR-222" vertex="1" connectable="0">
          <mxGeometry x="-0.0151" y="2" relative="1" as="geometry">
            <mxPoint as="offset" />
          </mxGeometry>
        </mxCell>
        <mxCell id="B0asdBHlaRNwjjJLpjrR-224" value="" style="endArrow=none;html=1;rounded=0;entryX=0.483;entryY=0.978;entryDx=0;entryDy=0;entryPerimeter=0;exitX=0.5;exitY=0;exitDx=0;exitDy=0;" parent="1" source="B0asdBHlaRNwjjJLpjrR-144" target="B0asdBHlaRNwjjJLpjrR-155" edge="1">
          <mxGeometry width="50" height="50" relative="1" as="geometry">
            <mxPoint x="767" y="645" as="sourcePoint" />
            <mxPoint x="817" y="595" as="targetPoint" />
          </mxGeometry>
        </mxCell>
        <mxCell id="B0asdBHlaRNwjjJLpjrR-225" value="works" style="edgeLabel;html=1;align=center;verticalAlign=middle;resizable=0;points=[];" parent="B0asdBHlaRNwjjJLpjrR-224" vertex="1" connectable="0">
          <mxGeometry x="0.0436" y="-2" relative="1" as="geometry">
            <mxPoint as="offset" />
          </mxGeometry>
        </mxCell>
        <mxCell id="5fMhvewT8v7j7GDFjWBs-1" value="" style="endArrow=none;html=1;rounded=0;entryX=0.409;entryY=0.987;entryDx=0;entryDy=0;entryPerimeter=0;exitX=1;exitY=0;exitDx=0;exitDy=0;" edge="1" parent="1" source="B0asdBHlaRNwjjJLpjrR-101" target="B0asdBHlaRNwjjJLpjrR-118">
          <mxGeometry width="50" height="50" relative="1" as="geometry">
            <mxPoint x="390" y="640" as="sourcePoint" />
            <mxPoint x="440" y="590" as="targetPoint" />
          </mxGeometry>
        </mxCell>
      </root>
    </mxGraphModel>
  </diagram>
</mxfile>
